<?xml version="1.0" encoding="UTF-8" standalone="no"?>
<!-- Created with Inkscape (http://www.inkscape.org/) -->

<svg
   version="1.1"
   id="svg1"
   width="769.12793"
   height="199.66628"
   viewBox="0 0 769.12793 199.66628"
   sodipodi:docname="marealogo.svg"
   inkscape:version="1.4.3 (0d15f75, 2025-12-25)"
   xmlns:inkscape="http://www.inkscape.org/namespaces/inkscape"
   xmlns:sodipodi="http://sodipodi.sourceforge.net/DTD/sodipodi-0.dtd"
   xmlns="http://www.w3.org/2000/svg"
   xmlns:svg="http://www.w3.org/2000/svg">
  <defs
     id="defs1" />
  <sodipodi:namedview
     id="namedview1"
     pagecolor="#ffffff"
     bordercolor="#005258"
     borderopacity="0.25"
     inkscape:showpageshadow="2"
     inkscape:pageopacity="0.0"
     inkscape:pagecheckerboard="0"
     inkscape:deskcolor="#d1d1d1"
     inkscape:zoom="0.76331045"
     inkscape:cx="453.2887"
     inkscape:cy="176.8612"
     inkscape:window-width="1512"
     inkscape:window-height="921"
     inkscape:window-x="0"
     inkscape:window-y="61"
     inkscape:window-maximized="0"
     inkscape:current-layer="g1" />
  <g
     inkscape:groupmode="layer"
     inkscape:label="Image"
     id="g1"
     transform="translate(-273,-270.93547)">
    <path
       style="fill:#005258"
       d="m 872,470.14913 c -4.09473,-0.619 -3.68549,-0.74411 4.5442,-1.38919 12.1994,-0.95623 20.92744,-4.00049 41.55305,-14.4933 29.67197,-15.09494 46.76661,-18.90919 66.24788,-14.7816 6.91436,1.46498 8.91343,2.42079 22.87157,10.93558 10.0315,6.11938 17.3236,8.61196 27.7833,9.49683 8.033,0.67958 8.3352,0.78811 5.5,1.97529 -1.65,0.69091 -6.7125,1.7546 -11.25,2.36376 -11.2789,1.51418 -21.8267,-0.0272 -39.32916,-5.74746 -16.33948,-5.34012 -27.28211,-6.55857 -41.00198,-4.56552 -7.82352,1.1365 -12.99295,2.73116 -40.88055,12.6108 -9.11831,3.23031 -11.81489,3.74274 -21,3.99065 C 881.24224,470.7014 874.475,470.52328 872,470.14913 Z m 72.18665,-20.14212 c 5.611,-1.34515 11.88903,-2.00516 19.31335,-2.03041 8.74215,-0.0297 10.59571,-0.27186 9.03036,-1.17961 -4.74569,-2.75204 -26.06333,-0.61766 -35.66299,3.57067 -4.75092,2.07284 -2.33492,1.95379 7.31928,-0.36065 z m -141.5417,12.409 c -24.62592,-5.96133 -43.32058,-29.9211 -45.346,-58.11714 -1.9236,-26.77857 12.45743,-54.29167 34.09826,-65.23519 12.0904,-6.11398 29.10778,-7.56355 42.25205,-3.5991 11.67284,3.52065 23.51527,15.00529 26.35774,25.56141 1.21862,4.52562 1.6155,17.68485 0.56505,18.7353 -0.40146,0.40146 -18.58191,0.7319 -40.40099,0.73432 L 780.5,380.5 l -0.28233,11.20478 c -0.34239,13.5887 1.29655,21.55748 6.75631,32.8502 6.78185,14.02728 17.94548,23.07628 32.11327,26.03035 13.19669,2.75159 25.23399,-0.12416 36.63239,-8.75158 4.32564,-3.27406 6.89028,-4.62383 7.54381,-3.9703 2.4865,2.4865 -9.37841,15.13416 -18.56424,19.78897 -11.63014,5.89344 -29.17656,7.88096 -42.05426,4.76359 z M 839.8,372.8 c 1.46541,-1.46541 1.55546,-8.98004 0.16749,-13.97731 -1.8155,-6.53656 -6.98717,-12.99968 -12.83168,-16.03595 -4.50731,-2.34158 -6.58395,-2.78518 -13,-2.77697 -9.41454,0.012 -15.8531,2.69901 -21.51434,8.97846 -4.37512,4.85288 -9.24952,14.83355 -10.2256,20.93759 L 781.74438,374 h 28.42781 c 20.77719,0 28.75076,-0.32295 29.62781,-1.2 z M 553,461.10038 c -6.6028,-2.33382 -13.96588,-9.70543 -15.79621,-15.81452 -3.64505,-12.16611 1.24555,-24.51064 12.75433,-32.19363 7.02056,-4.68675 14.21786,-7.77821 30.54188,-13.11867 13.56918,-4.43921 21.16176,-7.77818 23.88934,-10.50576 1.90621,-1.90621 2.16805,-12.98729 0.62421,-26.41639 -1.70715,-14.84961 -8.56586,-22.05833 -20.97544,-22.04583 -7.92683,0.008 -12.72923,1.63316 -17.2169,5.82638 -4.23711,3.95908 -5.756,8.24046 -5.79735,16.34131 -0.0181,3.54623 -0.64822,5.41529 -2.61275,7.75 -2.23348,2.65434 -3.25258,3.07673 -7.42328,3.07673 -3.71151,0 -5.53193,-0.58695 -7.83759,-2.52703 -9.36844,-7.88303 -0.84139,-20.77893 20.86685,-31.55803 8.51964,-4.23038 17.37571,-6.23124 27.98291,-6.32223 12.16589,-0.10435 18.65243,2.07892 25.0828,8.44247 8.19752,8.11234 8.2279,8.31438 8.61533,57.30018 0.35993,45.5082 0.52929,47.11043 5.24648,49.635 3.23763,1.73272 8.35252,1.14435 12.55539,-1.44427 4.9621,-3.05624 5.72244,-3.10179 5.31955,-0.31869 -0.67113,4.63609 -19.63491,14.83343 -27.93708,15.02254 -4.94271,0.11259 -5.45428,-0.11663 -8.88282,-3.98011 -2.00093,-2.25478 -4.19711,-5.96551 -4.88038,-8.24609 -0.88909,-2.96751 -1.58025,-3.88061 -2.4308,-3.21136 -7.66302,6.0296 -12.37741,9.07999 -18.68847,12.09216 -6.82191,3.25599 -8.40412,3.60586 -17.5,3.86974 -7.89693,0.22911 -11.15669,-0.11872 -15.5,-1.6539 z m 40.18525,-12.40258 c 2.93685,-1.43687 6.79591,-4.11488 8.57567,-5.95113 l 3.23594,-3.33864 0.40603,-19.70405 c 0.22494,-10.91624 0.01,-19.94907 -0.48291,-20.25344 -1.59578,-0.98624 -28.26693,8.61985 -34.37776,12.38176 -8.49536,5.22987 -12.04222,11.19514 -12.04222,20.25314 0,5.87823 0.38446,7.28813 3,11.00165 1.65,2.34265 5.025,5.34523 7.5,6.67239 6.06271,3.251 16.28789,2.80213 24.18525,-1.06168 z M 273,460.68346 c 0,-0.82157 2.4508,-1.80368 6.51868,-2.61225 8.32422,-1.65459 12.39188,-4.38636 15.32151,-10.28965 2.56162,-5.16176 2.82541,-8.69431 5.09877,-68.28156 0.56656,-14.85 1.55847,-40.5 2.20424,-57 0.64577,-16.5 0.85554,-31.69712 0.46614,-33.77138 -1.37982,-7.35016 -8.50689,-12.62043 -19.63605,-14.52032 -2.37387,-0.40525 -4.50149,-1.2929 -4.72804,-1.97256 C 277.92589,271.27768 283.21573,271 301.78595,271 h 23.95262 l 2.54989,5.75 c 16.43311,37.05676 68.80504,149.25905 69.65654,149.23306 0.30525,-0.009 7.94073,-16.99681 16.96773,-37.75 9.027,-20.75318 22.90702,-52.58306 30.84449,-70.73306 7.93747,-18.15 15.51725,-35.68051 16.84397,-38.95669 1.32671,-3.27619 2.75197,-6.29647 3.16725,-6.71175 0.41528,-0.41528 9.97477,-0.80964 21.24331,-0.87635 16.46062,-0.0975 20.54294,0.14387 20.76648,1.22758 0.18993,0.92083 -1.62961,1.71145 -5.73368,2.4914 -7.96721,1.51411 -12.82794,4.63791 -15.14067,9.73035 -2.17474,4.78859 -2.36898,12.97423 -0.92768,39.09546 0.5159,9.35 1.41397,26.9 1.9957,39 2.80843,58.41511 4.15134,80.34629 5.15452,84.17914 1.77924,6.7979 7.31188,10.51419 17.70574,11.89298 C 514.21002,459.02021 516,459.73259 516,460.62883 516,461.765 509.83002,462 480,462 c -31.33333,0 -36,-0.19444 -36,-1.5 0,-0.90202 0.92428,-1.5 2.3185,-1.5 4.93759,0 13.13225,-3.25075 16.37885,-6.49735 L 466,449.2 465.9871,436.35 c -0.007,-7.0675 -0.87979,-29.5 -1.93936,-49.85 -1.05958,-20.35 -2.22881,-45.1 -2.59829,-55 -1.05508,-28.27034 -0.70844,-27.97543 -9.36312,-7.96594 -8.0168,18.5347 -24.03001,55.00096 -30.06503,68.46594 -4.16833,9.30012 -8.05914,18.16676 -16.01673,36.5 -10.92381,25.167 -14.76057,33.00662 -16.30269,33.31117 -2.23292,0.44096 -3.62483,-2.03046 -14.63592,-25.98699 C 369.67535,424.09588 362.44674,408.65 359.00242,401.5 c -8.3787,-17.39316 -34.91348,-73.17584 -41.54918,-87.34667 -2.92229,-6.24067 -5.56975,-11.60317 -5.88324,-11.91667 -0.3135,-0.3135 -0.57582,1.19251 -0.58294,3.34667 -0.007,2.15417 -0.90778,24.16667 -2.00148,48.91667 -3.05499,69.1334 -3.41214,84.38823 -2.08849,89.20453 2.29558,8.35288 9.08398,13.4335 19.85291,14.85845 3.44301,0.45558 5.25,1.16662 5.25,2.06585 C 332,461.7594 326.82368,462 302.5,462 278.77146,462 273,461.74243 273,460.68346 Z m 390,-0.11256 c 0,-0.92286 1.90091,-1.82373 5.3662,-2.54312 3.43218,-0.71252 6.22533,-2.02818 7.75,-3.65049 l 2.3838,-2.53646 0.31074,-44.67042 c 0.20911,-30.06044 -0.0441,-45.87934 -0.77407,-48.36676 C 676.44853,353.39224 672.87057,351 666.36514,351 661.91176,351 661,350.70108 661,349.24106 c 0,-1.26913 1.87969,-2.42362 6.75,-4.14583 3.7125,-1.31278 10.97823,-4.34626 16.14607,-6.74105 5.16784,-2.3948 10.18026,-4.35418 11.13871,-4.35418 1.93662,0 2.46329,2.03962 3.55052,13.75 0.37022,3.9875 0.72748,7.24711 0.79391,7.24358 0.0664,-0.004 3.64414,-3.36798 7.95046,-7.47656 9.89658,-9.44214 18.24729,-13.80168 26.656,-13.91592 4.49819,-0.0611 6.56173,0.41415 8.70506,2.00491 3.44309,2.55543 5.63236,8.59731 4.97201,13.72161 -1.1014,8.54687 -7.54428,10.12717 -16.55327,4.06017 -7.25141,-4.88339 -11.59673,-5.36261 -18.4081,-2.03011 -7.22148,3.53314 -11.87136,9.42817 -12.79283,16.2185 -1.06528,7.85007 -1.03437,69.99184 0.0385,77.29706 1.40106,9.54037 4.58365,11.99017 17.80301,13.70384 3.44987,0.44722 5.25,1.15073 5.25,2.05175 0,1.13109 -5.25276,1.37117 -30,1.37117 -25.33853,0 -30,-0.22206 -30,-1.4291 z m 220.10881,-7.69738 c -4.97694,-4.97695 -7.66427,-12.80436 -6.73176,-19.60773 2.01895,-14.72986 13.3411,-23.42104 42.92838,-32.95294 7.80701,-2.51513 16.78207,-5.87091 19.94457,-7.4573 l 5.75,-2.88434 v -14.3041 c 0,-16.52417 -1.38005,-22.7525 -6.2773,-28.33016 -4.0056,-4.56212 -8.19743,-6.33849 -14.94058,-6.33137 -7.36055,0.008 -12.2303,1.57102 -16.45841,5.28335 -4.63495,4.06954 -6.32371,8.19722 -6.32371,15.45645 0,6.69032 -1.69132,9.80987 -6.38095,11.76932 -8.40296,3.51098 -16.83028,-3.24473 -15.15922,-12.15229 0.91686,-4.88725 9.81631,-13.75854 18.87352,-18.81377 11.25782,-6.28349 20.53955,-8.85549 32.16665,-8.91348 5.5,-0.0274 11.84257,0.49195 14.09461,1.15418 5.4224,1.59451 11.74724,5.93072 14.92198,10.23026 5.06442,6.85873 5.49684,10.62747 5.6252,49.02634 l 0.1185,35.45406 -5.88014,0.59717 c -3.23408,0.32844 -7.79265,0.9305 -10.13015,1.3379 L 945,432.1758 V 415.56885 398.9619 l -2.75,0.66068 c -1.5125,0.36338 -8.29375,2.57899 -15.06944,4.92358 -20.08242,6.94911 -28.04679,13.79562 -28.96782,24.90197 -0.5697,6.86986 0.98414,11.41542 5.41782,15.8491 l 3.56325,3.56325 -4.2988,2.19308 C 899.50395,452.78355 888.56021,457 887.4611,457 c -0.12419,0 -2.08272,-1.85692 -4.35229,-4.12648 z"
       id="path1"
       sodipodi:nodetypes="ssssssssssssssssssssssssscssssssssssssscsssssssssssssssssssssssssssssscscsssssssssssssscscsssssssssssssssssccsssssssssscssssssssscsssssssscssssssssssssssssscsscssssssssscsscccsssscsss" />
    <path
       style="fill:#005258"
       id="path2"
       d="m 964.79058,441.87003 c -0.39171,0.0877 -0.79588,0.0429 -1.19404,0.0528 -0.25607,-0.0122 -0.51226,-0.0218 -0.76857,-0.027 -0.0546,-10e-4 -0.11053,-0.015 -0.16371,-0.003 -0.0735,0.017 -0.13885,0.059 -0.20827,0.0886 -0.12463,0.0834 -0.31798,0.0589 -0.43122,0.16383 -0.43204,0.40052 -0.62749,1.00684 -0.82501,1.54465 4.36298,2.41628 8.72597,4.83256 13.08896,7.24884 0.0692,-0.042 0.26959,-0.16179 0.35441,-0.11976 0.0294,0.0145 0.0339,0.0561 0.0508,0.0842 0.0414,0.0108 0.0828,0.0217 0.1242,0.0325 0.0409,0.0246 0.0771,0.0596 0.12263,0.0738 0.0621,0.0194 0.13296,0.002 0.19372,0.0249 0.0615,0.0237 0.10477,0.0808 0.16274,0.11215 0.13884,0.075 0.22713,0.0856 0.37844,0.12166 0.0651,0.008 0.13521,-0.003 0.19525,0.0232 0.0501,0.0219 0.0729,0.0829 0.11789,0.11391 0.16051,0.11078 0.32947,0.11797 0.51379,0.13964 0.0562,0.1579 0.0428,0.16596 0.20363,0.17775 0.0319,0.002 0.063,0.0176 0.0947,0.0144 0.0419,-0.004 0.0807,-0.0478 0.12111,-0.0359 0.0292,0.009 0.0258,0.0552 0.0387,0.0828 0.17507,0.15924 0.43753,0.0239 0.64603,0.008 0.14549,0 0.29152,-0.0116 0.43481,-0.0377 0.13291,-0.0147 0.26352,-0.0171 0.39681,-0.005 0.0115,-4e-4 0.11373,-0.003 0.12049,-0.008 0.0669,-0.0486 0.11852,-0.1155 0.1795,-0.17141 0.0402,-0.0368 0.0884,-0.0653 0.1238,-0.10664 0.36525,-0.42604 0.0769,-0.15408 0.23258,-0.298 0.2008,-0.1829 0.33512,-0.46814 0.44043,-0.71678 0.0651,-0.11749 0.0896,-0.24043 0.11232,-0.37042 0.006,-0.0245 0.01,-0.0502 0.0194,-0.0738 0.0953,-0.23681 0.50664,-0.57963 0.28714,-0.70993 -12.79793,-7.59663 -9.94835,-10.72114 -13.37391,-6.86706 -0.2746,0.26786 -0.10814,0.18091 -0.40939,0.18546 -0.0891,0.0496 -0.19681,0.21782 -0.31001,0.23293 -0.0211,0.003 -0.0689,-0.097 -0.0724,-0.11256 -0.0908,-0.085 -0.20267,-0.0939 -0.32095,-0.11401 -0.0195,-8e-4 -0.0389,-10e-4 -0.0584,-0.002 -0.0393,-0.002 -0.0876,-0.0369 -0.11761,-0.0113 -0.04,0.0341 -0.22457,0.32146 -0.32873,0.31039 -0.01,-0.011 -0.017,-0.0407 -0.0296,-0.0329 -0.0573,0.0351 -0.0924,0.0981 -0.14498,0.13992 -0.0275,0.094 -0.0969,0.006 -0.13729,0.0296 -0.0983,0.0578 -0.17269,0.14913 -0.26302,0.2187 -0.0407,-0.0196 -0.14501,0.0419 -0.17764,0.0141 -0.0155,-0.0132 1.8e-4,-0.0419 -0.008,-0.0606 -0.0464,-0.10558 -0.13668,0.075 -0.15838,0.0976 -0.11417,0.11233 -0.20346,0.0511 -0.31669,-0.0261 -0.21534,-0.0602 -0.11355,-0.0751 -0.32598,0.10508 -0.0625,0.053 -0.13376,0.0891 -0.20445,0.12866 -0.0358,-0.0398 -0.11004,-9.8e-4 -0.14829,-0.0257 -0.0128,-0.008 -0.006,-0.0492 -0.0195,-0.0414 -0.0872,0.0521 -0.14657,0.14196 -0.23018,0.19962 -0.028,0.0155 -0.0525,0.0408 -0.084,0.0464 -0.0182,0.003 -0.0574,-0.0648 -0.0617,-0.0676 -0.0445,-0.029 -0.13458,-0.0463 -0.1857,-0.0574 -0.16121,-0.032 -0.32841,-0.0402 -0.49269,-0.0409 0.0381,-0.159 0.0165,-0.18576 -0.0985,-0.2694 -0.0201,-0.0146 -0.0365,-0.0403 -0.0612,-0.0425 -0.0626,-0.006 -0.12271,0.0296 -0.18538,0.0345 0.0347,-0.36771 -0.10511,-0.20765 -0.33259,-0.20214 4.29844,2.45176 8.59106,4.91373 12.89531,7.35527 0.15811,0.0897 -0.10269,-0.14358 -0.1344,-0.1616 -4.32896,-2.4605 -8.6609,-4.91574 -12.99135,-7.37361 -0.1332,0.0447 -0.24551,0.14202 -0.38382,0.1635 0.0138,-0.0137 -0.23395,0.038 -0.22629,0.0184 0.0347,-0.0884 0.0898,-0.16735 0.1347,-0.25102 4.29372,2.45216 8.59976,4.8829 12.88117,7.3565 0.0681,0.0393 -0.10467,0.0482 -0.15031,0.13561 -0.11697,0.22387 -0.22877,0.45041 -0.34316,0.67561 0.049,-0.0645 -0.0384,-0.0221 -0.0353,-0.0394 0.0241,-0.13338 0.12415,-0.2636 0.1991,-0.37033 0.0866,-0.10996 0.1623,-0.21758 0.24212,-0.33314 0.004,-0.006 -0.006,0.0172 -10e-4,0.0227 0.005,0.006 0.0156,6.1e-4 0.0234,9.1e-4 0.10418,-4.4e-4 0.0597,-0.21472 0.15065,-0.23677 0.0319,-0.008 -0.029,0.0592 -0.038,0.0907 -0.0101,0.0357 0.009,0.0657 0.0237,0.0959 0.39175,5.0588 -15.19759,-3.12546 -12.846,-7.73724 0,0 13.07829,7.4516 13.07829,7.4516 v 0 c 2.38221,-4.68834 -9.86392,-12.10627 -12.89932,-7.86226 -0.0673,0.0869 -0.13591,0.17333 -0.19862,0.26368 -0.0445,0.0641 -0.17327,0.25934 -0.12454,0.19835 0.005,-0.006 0.004,-0.014 0.007,-0.021 -0.12888,0.19771 -0.21862,0.371 -0.35309,0.57098 -0.10602,0.21988 -0.26727,0.40897 -0.41171,0.60442 -0.12128,0.24438 -0.24966,0.48536 -0.36383,0.73314 -0.0381,0.0827 0.0536,0.21346 0.0204,0.29828 4.31976,2.46889 8.63952,4.93778 12.95929,7.40667 0.18955,-0.18197 0.21359,-0.26118 0.43806,-0.1973 0.0871,0.0289 0.0807,0.14019 0.0808,0.21894 -4.30224,-2.44779 -8.60533,-4.89406 -12.9067,-7.34336 -0.0129,-0.007 0.0272,0.0115 0.0409,0.0173 0.0403,0.0169 0.12153,0.0214 0.15283,0.0392 4.32828,2.46395 8.64828,4.94241 12.97242,7.41361 0.0315,0.0398 0.0636,0.1721 0.0667,0.17564 0.0489,0.056 0.29489,-0.063 0.31687,-0.0704 0.0305,0.0281 0.0384,0.0775 0.0724,0.1012 0.0179,0.0125 0.0435,0.003 0.0653,0.004 0.16559,0.006 0.2477,-10e-4 0.38272,-0.12983 0.19537,-7.3e-4 0.39324,-0.0168 0.58368,-0.0611 0.20965,-0.0702 0.40216,-0.17428 0.58659,-0.28892 0.0157,0.003 0.0377,-0.004 0.0471,0.008 0.0164,0.0222 -0.009,0.0764 0.0185,0.0806 0.0325,0.005 0.2872,-0.18649 0.33279,-0.19866 0.13489,-9.4e-4 0.0113,0.0625 0.0799,0.13706 0.023,0.025 0.20447,-0.0756 0.23091,-0.075 0.17807,-0.0799 0.3309,-0.21744 0.50704,-0.29294 0.011,-0.005 0.023,0.007 0.0345,0.01 0.003,0.0252 -0.0163,0.0714 0.009,0.0757 0.0362,0.006 0.37892,-0.31723 0.44821,-0.35581 0.0136,-0.003 0.0276,-0.0119 0.0409,-0.008 0.0161,0.005 0.0225,0.0366 0.0387,0.0322 0.0846,-0.0228 0.14731,-0.14072 0.23281,-0.12177 0.0219,0.005 -0.0101,0.0681 0.0122,0.0662 0.0508,-0.004 0.0875,-0.0522 0.13125,-0.0783 0.31091,-0.18261 -0.22846,0.28085 0.20445,0.16022 0.17612,-0.0363 0.35311,-0.0627 0.50385,-0.1711 0.0758,-0.0547 0.1335,-0.0937 0.20298,-0.15168 0.0686,-0.0573 0.14715,-0.16999 0.23395,-0.0875 0.0854,-0.0531 0.41003,-0.29679 0.46065,-0.3055 0.0274,-0.005 -0.008,0.0798 0.035,0.0756 -0.61906,5.0189 -0.0868,0.92149 -13.1898,-6.92548 -0.21748,-0.13024 0.21264,-0.46029 0.32436,-0.68784 0.009,-0.0185 0.0146,0.0776 0.0215,0.0581 0.0153,0.0574 0.0296,0.0441 0.0779,0.0782 0.0372,-0.006 0.18662,-0.21389 0.0615,-0.0918 -0.16953,0.13761 -0.009,-0.0144 0.0203,-0.16987 0.0378,-0.20018 0.0799,-0.13226 -0.1097,-0.14212 -0.1308,0.0175 -0.25988,0.008 -0.39091,-0.002 -0.0979,-0.0184 -0.1888,-0.0408 -0.28349,-0.0722 -0.16168,-0.0732 -0.22963,-0.28405 -0.42464,-0.2822 -0.0478,0.005 -0.0981,0.0308 -0.1434,0.0148 -0.0275,-0.01 -0.0204,-0.0557 -0.0382,-0.0788 -0.0998,-0.12976 -0.20103,-0.12335 -0.35564,-0.0799 -0.12349,-0.0717 -0.22425,-0.1508 -0.3757,-0.16511 -0.0574,-0.005 -0.11602,0.0195 -0.17282,0.009 -0.0517,-0.009 -0.0955,-0.0438 -0.14322,-0.0656 -0.11969,-0.0476 -0.21547,-0.093 -0.3454,-0.11248 -0.0753,-0.0113 -0.15324,10e-4 -0.22807,-0.0128 -0.0747,-0.0141 -0.14204,-0.0567 -0.2167,-0.0709 -0.13155,-0.0251 -0.26929,-3.1e-4 -0.40047,-0.0321 -0.1183,0.0265 -0.27259,0.0769 -0.39617,0.0184 -0.0431,-0.0204 -0.13003,-0.1354 -0.0883,-0.11236 4.34256,2.39996 8.67241,4.82282 13.00862,7.23423 -0.25977,0.56133 -0.26338,0.60268 -0.65295,1.2317 -0.0505,0.0816 -0.12197,0.14822 -0.17841,0.22578 -0.004,0.005 -0.005,0.0174 10e-4,0.018 0.0267,0.002 0.0531,-0.007 0.0797,-0.0107 0.0323,0.003 0.0646,0.006 0.0969,0.009 0.18647,0.14388 0.67972,-0.004 0.91791,0.0223 0.44701,0.0104 0.8961,-0.0262 1.33924,0.0528 z" />
    <circle
       id="path3"
       style="fill:#005258;stroke:#005258"
       cx="968.6535"
       cy="445.8042"
       r="0.076952852" />
    <path
       style="fill:#005258;stroke-width:0.152857"
       d="m 603.44214,199.47915 c -2.65636,-0.12309 -5.77264,-0.48123 -6.48717,-0.74555 -0.30391,-0.11243 -0.29057,-0.13096 0.15905,-0.22088 0.26994,-0.054 2.5007,-0.27341 4.95726,-0.4876 6.77826,-0.59102 9.88782,-1.09834 14.52424,-2.3696 6.88272,-1.88717 13.73506,-4.8233 28.55943,-12.23729 9.92124,-4.96183 15.41195,-7.45796 21.76141,-9.89295 17.62923,-6.7607 30.69729,-8.05269 45.93362,-4.54128 5.20696,1.20001 8.04531,2.5595 18.34287,8.78572 9.38675,5.67552 13.08918,7.4724 18.91047,9.17772 3.79778,1.11255 6.85381,1.62963 13.07076,2.21161 2.20917,0.20679 4.38718,0.44658 4.84003,0.53285 0.45286,0.0863 0.84837,0.15686 0.87893,0.15686 0.0306,0 0.0556,0.0676 0.0556,0.15028 0,0.69175 -5.68734,2.21117 -11.38786,3.04236 -3.87905,0.5656 -5.61172,0.69083 -9.47716,0.68494 -8.76586,-0.0134 -16.47128,-1.5635 -31.41217,-6.31938 -8.81788,-2.80685 -14.79496,-4.18563 -21.66544,-4.99777 -2.81842,-0.33315 -11.18214,-0.38144 -14.10317,-0.0814 -10.84678,1.11408 -14.70617,2.21429 -44.09932,12.57157 -9.50938,3.35082 -12.24361,4.02888 -17.81977,4.41916 -3.14696,0.22025 -12.22903,0.31413 -15.54157,0.16064 z M 664.21157,180.676 c 0.93782,-0.16887 3.35748,-0.68529 5.37704,-1.14761 7.14915,-1.63659 12.94721,-2.36114 18.92756,-2.36528 l 2.18693,-0.002 -0.93054,-0.86151 c -0.51179,-0.47383 -0.90381,-0.88823 -0.87116,-0.92089 0.0327,-0.0327 0.79152,0.36071 1.68636,0.87415 l 1.62697,0.93354 1.87226,-0.12729 1.87226,-0.12729 -2.16371,-1.18464 -2.16371,-1.18464 -1.35201,0.002 c -4.7541,0.008 -13.10208,1.04581 -18.3629,2.28291 -5.25728,1.23627 -10.42699,3.17583 -10.42699,3.91199 0,0.30768 0.65853,0.28731 2.72164,-0.0842 z"
       id="path4"
       transform="translate(273,270.93547)" />
    <path
       style="fill:#005258;stroke-width:0.152857"
       d="m 603.47559,199.48023 c -2.73798,-0.12725 -6.20227,-0.52142 -6.61561,-0.75274 -0.33513,-0.18754 0.32019,-0.27589 5.2113,-0.70254 6.61692,-0.57719 10.0073,-1.13093 14.54893,-2.3762 6.8533,-1.8791 13.77472,-4.84862 28.70115,-12.31372 3.63824,-1.81959 8.0251,-3.96114 9.74856,-4.759 23.79588,-11.01613 39.20888,-13.67894 56.80081,-9.81311 6.1191,1.34467 7.97413,2.21181 19.55141,9.13939 6.97555,4.17401 10.60923,6.09469 14.15522,7.48215 5.50137,2.15255 9.55648,3.02193 17.61341,3.77614 2.19999,0.20595 4.37049,0.44503 4.82334,0.5313 0.45286,0.0863 0.84837,0.15686 0.87893,0.15686 0.0306,0 0.0556,0.0724 0.0556,0.16088 0,0.54955 -3.98769,1.73783 -8.64391,2.57576 -13.54798,2.43811 -23.54867,1.27268 -43.17471,-5.03137 -8.34926,-2.68185 -14.70065,-4.20201 -20.71216,-4.95731 -9.03854,-1.13563 -19.62119,-0.39858 -28.66074,1.99614 -4.78928,1.26875 -12.33872,3.75905 -26.1386,8.62219 -10.26834,3.61861 -11.8623,4.14632 -14.75073,4.88355 -2.59911,0.66338 -4.84498,1.00982 -7.94858,1.22612 -3.06861,0.21386 -12.20786,0.30589 -15.44358,0.15551 z m 61.53006,-18.95702 c 0.88275,-0.1764 3.08389,-0.65872 4.89143,-1.07184 6.8215,-1.55906 12.69799,-2.281 18.61909,-2.2874 l 2.18693,-0.002 -0.93054,-0.86151 c -0.51179,-0.47383 -0.90449,-0.88756 -0.87266,-0.91939 0.0318,-0.0318 0.79735,0.36112 1.70117,0.87321 l 1.64329,0.93108 1.85744,-0.12634 1.85745,-0.12634 -2.20557,-1.20748 -2.20557,-1.20748 -2.76229,0.10326 c -6.06426,0.22671 -12.48438,1.13925 -18.5066,2.63049 -3.84617,0.95239 -8.65106,2.8641 -8.76679,3.48801 -0.0499,0.26897 0.0198,0.284 0.91711,0.19794 0.53411,-0.0512 1.69335,-0.23745 2.57611,-0.41384 z"
       id="path5"
       transform="translate(273,270.93547)" />
    <path
       style="fill:#005258;stroke-width:0.152857"
       d="m 603.47559,199.48027 c -2.74665,-0.12769 -6.20263,-0.52166 -6.6187,-0.75451 -0.15513,-0.0868 -0.0682,-0.14994 0.29809,-0.21661 0.49846,-0.0907 4.10374,-0.43412 6.63132,-0.63164 7.15221,-0.55893 13.80413,-2.14895 21.07746,-5.03819 5.24467,-2.08337 10.30053,-4.43804 21.41687,-9.9745 7.62584,-3.79802 10.24677,-5.03045 15.05644,-7.07991 14.879,-6.34012 26.34988,-8.99278 37.45004,-8.66037 4.73222,0.14171 8.75025,0.65379 13.48528,1.71863 5.72565,1.28762 7.69899,2.2143 18.69118,8.7774 8.49102,5.06972 10.47799,6.11923 14.89488,7.86744 5.00738,1.98193 9.46799,2.92794 17.28158,3.66513 2.22789,0.21019 4.42123,0.45269 4.87408,0.53889 0.45286,0.0862 0.84837,0.15673 0.87893,0.15673 0.0306,0 0.0556,0.0724 0.0556,0.16088 0,0.31851 -2.03425,1.10283 -4.34568,1.67551 -6.55914,1.62508 -14.0384,2.37815 -19.80577,1.9942 -7.81268,-0.52011 -15.1441,-2.1369 -27.44845,-6.05317 -8.76875,-2.79095 -14.38743,-4.15665 -20.38079,-4.95384 -8.15813,-1.08513 -17.39109,-0.67617 -25.94425,1.14915 -5.62718,1.2009 -11.27641,3.03178 -34.75519,11.26393 -9.27906,3.25344 -11.67643,3.84056 -17.28476,4.23309 -3.13658,0.21953 -12.2262,0.31434 -15.50812,0.16176 z m 61.57792,-18.97074 c 0.85642,-0.17059 3.03603,-0.64752 4.84357,-1.05985 6.81043,-1.55359 12.70491,-2.27922 18.56738,-2.28571 l 2.13521,-0.002 -0.90757,-0.91714 c -0.49917,-0.50443 -0.86329,-0.91715 -0.80917,-0.91715 0.0541,0 0.83444,0.41786 1.73403,0.92858 l 1.63562,0.92857 1.83618,-0.12607 1.83618,-0.12608 -2.1402,-1.18464 -2.1402,-1.18464 -1.28194,0.002 c -1.53022,0.003 -5.29684,0.24065 -7.31979,0.46218 -7.674,0.84035 -14.66192,2.42107 -19.10717,4.32218 -1.83816,0.78613 -2.44571,1.1439 -2.44571,1.4402 0,0.19837 0.15747,0.21917 1.00322,0.13252 0.55177,-0.0565 1.70393,-0.24236 2.56036,-0.41294 z"
       id="path6"
       transform="translate(273,270.93547)" />
    <path
       style="fill:#005258;stroke-width:0.152857"
       d="m 603.47559,199.48027 c -2.83193,-0.13166 -6.21646,-0.52468 -6.63667,-0.77067 -0.1303,-0.0763 -0.1903,-0.14077 -0.13333,-0.14333 0.057,-0.003 0.60726,-0.0719 1.22286,-0.15408 0.6156,-0.0822 2.77013,-0.29109 4.78785,-0.46422 6.21061,-0.53293 9.99987,-1.18434 14.63876,-2.51654 6.5297,-1.87521 13.09181,-4.71002 27.54985,-11.90143 7.84321,-3.9012 11.89506,-5.81797 16.04967,-7.59244 11.3535,-4.8492 20.05362,-7.37738 29.27252,-8.50635 3.1108,-0.38096 10.62579,-0.3824 13.75715,-0.003 2.98918,0.36252 5.41294,0.77574 8.27905,1.41146 5.45704,1.21041 8.25185,2.50038 17.63027,8.13733 9.74876,5.85957 13.14322,7.60509 17.96073,9.2359 4.71251,1.59528 8.15261,2.25025 15.49218,2.94962 4.23135,0.40319 5.60212,0.61304 5.60212,0.85759 0,0.30504 -2.038,1.0891 -4.30998,1.65813 -6.45701,1.61721 -14.07052,2.38493 -19.84147,2.00074 -7.83623,-0.52168 -14.58538,-2.00267 -27.2086,-5.97047 -10.63752,-3.34365 -16.02085,-4.58109 -23.38716,-5.3759 -2.35848,-0.25448 -10.67507,-0.253 -13.22216,0.002 -10.39716,1.04231 -14.59283,2.20629 -39.89575,11.06808 -5.63279,1.97276 -10.96369,3.80195 -11.84644,4.06487 -3.6404,1.08427 -6.38465,1.57947 -10.25333,1.85024 -3.13658,0.21953 -12.2262,0.31434 -15.50812,0.16176 z m 60.24896,-18.73169 c 0.74664,-0.12895 3.35231,-0.67601 5.79039,-1.2157 2.43807,-0.53968 5.25829,-1.11895 6.26714,-1.28726 3.86283,-0.64447 8.94026,-1.07751 12.68238,-1.08165 l 2.13521,-0.002 -0.90757,-0.91714 c -0.49917,-0.50443 -0.85452,-0.91715 -0.78966,-0.91715 0.0649,0 0.84215,0.41805 1.72735,0.92901 l 1.60943,0.929 1.84286,-0.1265 1.84286,-0.12651 -2.18144,-1.20749 -2.18145,-1.2075 -2.69028,0.10501 c -7.79793,0.30436 -16.83431,1.83613 -22.64327,3.83829 -2.10083,0.72409 -4.73857,2.00208 -4.73857,2.29584 0,0.2929 0.50333,0.29112 2.23462,-0.008 z"
       id="path7"
       transform="translate(273,270.93547)" />
    <path
       style="fill:#005258;stroke-width:0.152857"
       d="m 604.62702,199.53879 c -3.65675,-0.11867 -8.18389,-0.63996 -7.91272,-0.91113 0.11186,-0.11185 2.19058,-0.35283 5.16128,-0.59832 8.82271,-0.72909 14.32067,-1.90799 21.40002,-4.58871 5.34373,-2.0235 9.57184,-3.9642 22.31717,-10.24359 12.2704,-6.0454 17.17181,-8.22572 24.18684,-10.7592 14.16537,-5.1158 25.95199,-6.48197 38.25536,-4.43412 2.7772,0.46225 6.53591,1.32744 8.33073,1.91759 2.40217,0.78985 6.85612,3.06876 12.07572,6.17866 8.14246,4.85138 8.72563,5.1914 10.76461,6.27634 3.90377,2.07721 6.9018,3.33481 10.6614,4.47223 3.7078,1.12173 6.89391,1.66699 13.50188,2.31065 4.18254,0.4074 5.57929,0.62037 5.57929,0.85068 0,0.39425 -2.62375,1.3344 -5.54766,1.98787 -6.28887,1.4055 -13.27107,2.03663 -18.60379,1.68161 -8.01182,-0.53337 -14.50511,-1.97831 -28.20217,-6.27578 -10.7587,-3.37556 -17.3504,-4.75341 -24.93174,-5.21144 -4.96262,-0.29982 -10.87605,0.0134 -16.40011,0.86866 -7.23021,1.11942 -12.16929,2.63271 -37.00751,11.33876 -7.78005,2.72698 -9.19697,3.18458 -11.91923,3.84933 -2.16934,0.52974 -4.39826,0.8573 -7.2929,1.07176 -2.15244,0.15948 -11.74946,0.3047 -14.41647,0.21815 z m 59.47296,-18.8698 c 0.96051,-0.17272 3.5692,-0.72149 5.7971,-1.21948 2.22789,-0.498 4.87615,-1.04284 5.885,-1.21075 3.87285,-0.64462 8.89457,-1.07311 12.60595,-1.07565 l 2.21164,-0.002 -0.90757,-0.91714 c -0.49917,-0.50443 -0.85452,-0.91715 -0.78966,-0.91715 0.0649,0 0.83865,0.41603 1.71955,0.92451 l 1.60165,0.9245 1.84669,-0.122 1.8467,-0.12201 -2.15184,-1.18464 -2.15185,-1.18464 h -1.21596 c -4.41752,0 -12.38765,0.96615 -17.74887,2.15155 -4.81559,1.06476 -9.76193,2.77891 -10.89108,3.77431 -0.66784,0.58873 -0.15085,0.62848 2.34255,0.1801 z"
       id="path8"
       transform="translate(273,270.93547)" />
    <path
       style="fill:#005258;stroke-width:0.152857"
       d="m 603.11217,199.46397 c -2.62905,-0.11974 -5.82692,-0.49848 -6.26128,-0.74156 -0.34215,-0.19148 0.21001,-0.26891 4.94827,-0.69391 8.23243,-0.73841 12.1133,-1.46108 17.80787,-3.31606 6.24313,-2.03367 11.13394,-4.20559 26.40096,-11.72419 11.94611,-5.88314 16.92679,-8.08828 24.05081,-10.6482 13.98231,-5.02436 25.86681,-6.38297 37.97286,-4.34098 2.81871,0.47545 6.55437,1.33708 8.33404,1.92224 2.39832,0.78858 6.85083,3.06588 12.07572,6.17631 8.29143,4.93595 9.05461,5.37473 11.84644,6.81091 6.03425,3.10416 11.03472,4.71236 17.50216,5.62888 0.88275,0.1251 3.39343,0.40338 5.57929,0.61842 4.18634,0.41183 5.57929,0.62482 5.57929,0.8531 0,0.89343 -7.91281,2.73916 -15.13287,3.52986 -2.60912,0.28573 -9.20489,0.24171 -11.9993,-0.0801 -7.13201,-0.82131 -13.18691,-2.2648 -24.76288,-5.90346 -11.56568,-3.63542 -18.01918,-4.97057 -25.98327,-5.37563 -4.0857,-0.2078 -9.10874,5e-5 -13.45391,0.55671 -8.57938,1.09911 -12.83374,2.36917 -40.88932,12.20675 -8.47484,2.97167 -11.0296,3.67084 -15.14539,4.14489 -4.07872,0.46978 -12.60116,0.64329 -18.46949,0.37601 z m 60.46346,-18.70888 c 0.76882,-0.1247 3.41708,-0.673 5.88501,-1.21845 2.46794,-0.54545 5.27819,-1.12604 6.24502,-1.29019 3.72359,-0.63223 8.96738,-1.08324 12.60594,-1.08423 l 2.28807,-6.2e-4 -0.90757,-0.91714 c -0.49917,-0.50443 -0.85563,-0.91715 -0.79214,-0.91715 0.0635,0 0.84355,0.41254 1.73346,0.91676 l 1.61802,0.91675 1.74614,-0.0997 c 0.96038,-0.0549 1.69146,-0.15354 1.62462,-0.21931 -0.0668,-0.0658 -1.01021,-0.61523 -2.09639,-1.22104 l -1.97487,-1.10146 -2.65584,0.10645 c -6.81242,0.27304 -14.52846,1.46782 -20.43084,3.16359 -3.84877,1.10575 -7.17881,2.58634 -6.88528,3.06128 0.1114,0.18025 0.37384,0.16769 1.99665,-0.0955 z"
       id="path9"
       transform="translate(273,270.93547)" />
    <ellipse
       style="fill:#005258"
       id="path10"
       cx="954.28497"
       cy="447.63849"
       rx="20.941448"
       ry="2.7514312" />
    <ellipse
       style="fill:#005258"
       id="path11"
       cx="939.53424"
       cy="450.54279"
       rx="7.5664358"
       ry="1.5285729" />
    <ellipse
       style="fill:#005258"
       id="path12"
       cx="934.48993"
       cy="451.91849"
       rx="5.8850055"
       ry="1.3757156" />
  </g>
</svg>
